<svg width="1132" height="317" viewBox="0 0 1132 317" fill="none" xmlns="http://www.w3.org/2000/svg">
<g clip-path="url(#clip0_1_1000)">
<path d="M0 1.30496V157.18H102.452V123.026H37.0454V95.652H92.9135V61.5131H37.0454V35.4589H102.452V1.30496H0Z" fill="url(#paint0_linear_1_1000)"/>
<path d="M194.946 1.30496V101.577C194.946 108.867 193.101 114.491 189.442 118.421C185.767 122.366 180.833 124.346 174.623 124.346C168.414 124.346 163.375 122.336 159.91 118.331C156.446 114.326 154.721 108.732 154.721 101.577V1.30496H117.676V102.447C117.676 119.231 123.24 132.866 134.398 143.38C145.107 153.445 158.53 158.485 174.608 158.485C190.687 158.485 204.275 153.31 215.358 142.945C226.427 132.581 231.976 119.096 231.976 102.447V1.30496H194.931H194.946Z" fill="url(#paint1_linear_1_1000)"/>
<path d="M303.743 0C295.269 0 287.56 1.49995 280.57 4.48486C273.581 7.48476 267.342 11.8196 261.838 17.5194C254.624 24.9742 250.049 34.3789 248.084 45.7636C247.095 51.4634 246.6 62.623 246.6 79.2575C246.6 95.892 247.17 106.347 248.294 112.766C250.259 124.301 254.774 133.706 261.838 141.011C273.116 152.68 287.095 158.515 303.743 158.515C318.696 158.515 331.114 154.36 340.998 146.035C351.587 137.141 358.201 124.361 360.885 107.727H323.21C321.8 112.826 319.821 116.711 317.286 119.321C314.046 122.681 309.592 124.361 303.953 124.361C297.458 124.361 292.584 122.171 289.359 117.791C287.23 114.866 285.76 111.042 284.905 106.302C284.065 101.562 283.645 92.5621 283.645 79.2575C283.645 65.9529 284.14 57.4032 285.13 52.2284C286.12 47.0535 287.47 43.2886 289.149 40.9487C290.844 38.6238 292.884 36.8988 295.284 35.8189C297.683 34.7239 300.578 34.1689 303.968 34.1689C309.757 34.1689 314.256 35.8489 317.511 39.2088C319.911 41.6837 321.815 45.5536 323.225 50.8034H360.9C358.216 34.1689 351.602 21.3893 341.013 12.4946C330.994 4.18487 318.576 0.0149995 303.758 0.0149995L303.743 0Z" fill="url(#paint2_linear_1_1000)"/>
<path d="M408.954 1.30496H371.909V157.18H472.232V123.026H408.954V1.30496Z" fill="url(#paint3_linear_1_1000)"/>
<path d="M522.415 1.30496H485.37V157.165H522.415V1.30496Z" fill="url(#paint4_linear_1_1000)"/>
<path d="M652.689 35.1439C650.064 28.1991 646.195 22.0793 641.036 16.7545C635.891 11.4296 629.892 7.51477 623.038 5.03984C616.184 2.54992 608.61 1.30496 600.286 1.30496H544.403V157.18H600.286C608.325 157.18 615.884 155.905 622.948 153.355C629.997 150.79 635.996 146.965 640.931 141.851C647.845 134.696 652.359 126.671 654.489 117.761C655.884 111.941 656.589 102.882 656.589 90.6271V68.0679C656.589 53.0383 655.299 42.0587 652.689 35.1289V35.1439ZM618.823 104.547C618.328 108.552 617.204 111.881 615.434 114.491C613.664 117.131 611.369 119.201 608.565 120.731C605.73 122.261 602.13 123.026 597.766 123.026H581.463V35.4589H597.766C602.28 35.4589 605.925 36.1939 608.67 37.6488C611.414 39.1188 613.649 41.1437 615.344 43.7686C617.039 46.3935 618.163 49.7984 618.718 53.9383C619.288 58.1082 619.573 66.5229 619.573 79.2275C619.573 91.9321 619.333 100.512 618.838 104.532L618.823 104.547Z" fill="url(#paint5_linear_1_1000)"/>
<path d="M765.625 83.3974C762.386 80.4875 758.711 78.1775 754.617 76.5126C750.522 74.8476 745.033 73.4827 738.104 72.4627L721.591 69.8528C717.631 69.1178 713.837 67.9779 710.162 66.4629C706.488 64.918 703.518 63.208 701.268 61.3031C696.739 57.2232 694.504 51.2384 694.504 43.3636C694.504 34.4689 697.294 27.4191 702.873 22.2443C708.453 17.0545 716.237 14.4745 726.255 14.4745C733.874 14.4745 740.474 15.5995 746.053 17.8644C751.617 20.1294 756.747 23.4443 761.411 27.8241L771.775 17.0995C765.146 10.9647 758.411 6.59979 751.557 3.97487C744.718 1.34996 736.499 0.0299988 726.9 0.0299988C712.082 0.0299988 700.339 4.03487 691.655 12.0596C682.971 20.0844 678.636 30.749 678.636 44.0236C678.636 56.4432 682.446 66.1329 690.065 73.1377C696.559 78.9875 705.798 82.9174 717.796 84.9573L735.359 87.8072C740.729 88.6772 744.778 89.6372 747.538 90.6571C750.282 91.6771 752.787 93.2071 755.052 95.247C759.836 99.6269 762.251 106.122 762.251 114.731C762.251 123.776 759.071 130.856 752.727 135.956C746.383 141.071 737.699 143.62 726.675 143.62C717.931 143.62 710.417 142.346 704.148 139.796C697.864 137.246 691.685 132.821 685.625 126.551L674.617 137.936C681.951 145.525 689.495 150.85 697.264 153.91C705.018 156.97 714.692 158.5 726.27 158.5C742.213 158.5 754.872 154.525 764.261 146.575C773.649 138.626 778.344 127.856 778.344 114.281C778.344 100.707 774.114 90.8521 765.64 83.4124L765.625 83.3974Z" fill="#404041"/>
<path d="M881.906 16.1995C871.452 5.39983 858.629 0 843.391 0C828.153 0 815.299 5.39983 804.861 16.1995C797.106 24.2242 792.577 35.1139 791.317 48.8235C790.897 53.6383 790.687 63.778 790.687 79.2575C790.687 97.9319 791.422 111.431 792.907 119.756C794.392 128.081 798.381 135.596 804.861 142.301C815.299 153.1 828.153 158.5 843.391 158.5C858.629 158.5 871.467 153.1 881.906 142.301C889.66 134.276 894.174 123.401 895.449 109.677C895.884 104.862 896.079 94.722 896.079 79.2575C896.079 60.5831 895.449 47.7285 894.174 40.7387C892.48 31.109 888.385 22.9343 881.906 16.2145V16.1995ZM878.201 115.046C877.002 121.691 874.077 127.496 869.412 132.461C862.498 139.901 853.814 143.605 843.376 143.605C832.937 143.605 824.238 139.901 817.339 132.461C812.675 127.646 809.75 121.841 808.55 115.046C807.35 108.252 806.75 96.327 806.75 79.2575C806.75 62.188 807.35 50.1134 808.55 43.4686C809.75 36.8388 812.69 31.034 817.339 26.0692C824.238 18.6294 832.922 14.9095 843.376 14.9095C853.829 14.9095 862.498 18.6294 869.412 26.0692C874.077 30.884 877.002 36.6888 878.201 43.4686C879.401 50.2634 880.001 62.188 880.001 79.2575C880.001 96.327 879.401 108.402 878.201 115.046Z" fill="#404041"/>
<path d="M918.381 157.18H934.474V88.4372H1000.53V73.5577H934.474V15.9745H1011.95V1.09497H918.381V157.18Z" fill="#404041"/>
<path d="M1028.71 1.09497V15.9745H1072.31V157.18H1088.4V15.9745H1132V1.09497H1028.71Z" fill="#404041"/>
<path d="M141.732 271.101V282.216H166.479V316.07H180.113V282.216H202.61V317H216.003V282.216H240.39V271.101H141.732Z" fill="#1A1A1A"/>
<path d="M191.001 262.522C215.523 262.522 230.236 252.787 230.236 238.177C230.236 223.568 215.403 213.953 191.001 213.953C166.599 213.953 151.766 223.913 151.766 238.177C151.766 252.442 166.479 262.522 191.001 262.522ZM191.001 224.963C205.594 224.963 215.523 229.718 215.523 238.177C215.523 246.637 205.474 251.392 191.001 251.392C176.528 251.392 166.479 246.412 166.479 238.177C166.479 229.943 176.408 224.963 191.001 224.963Z" fill="#1A1A1A"/>
<path d="M350.522 253.372C352.562 243.277 354.586 228.443 354.946 219.188C354.946 216.758 354.106 215.933 351.602 215.933H278.276V226.028H341.073C340.953 228.683 340.833 231.353 340.473 234.023C330.424 235.058 321.335 235.298 309.622 235.298H276.731V244.687H302.798C315.831 244.687 329.104 244.222 339.513 242.722C338.928 246.322 338.208 249.907 337.608 253.387H266.682V263.587H365.355V253.387H350.522V253.372Z" fill="#404041"/>
<path d="M294.549 298.101H349.682C352.187 298.101 353.026 297.291 353.026 294.846V274.221C353.026 271.776 352.187 270.966 349.682 270.966H279.236V281.046H337.728V288.816H282.58C280.076 288.816 279.236 289.626 279.236 292.056V313.025C279.236 315.47 280.076 316.28 282.58 316.28H355.426V306.32H294.549V298.086V298.101Z" fill="#404041"/>
<path d="M413.664 281.631V260.542H446.555C449.059 260.542 449.899 259.732 449.899 257.302V221.498C449.899 219.053 449.059 218.243 446.555 218.243H400.015V229.373H436.611V249.652H403.36C400.855 249.652 400 250.462 400 252.907V289.521C400 291.951 400.84 292.761 403.36 292.761C404.08 292.761 423.083 292.641 426.802 292.641C440.435 292.401 456.573 290.436 463.878 289.386V278.271C456.334 279.546 440.675 281.391 430.027 281.511L413.649 281.616L413.664 281.631Z" fill="#404041"/>
<path d="M481.59 213.263H467.957V316.88H481.59V213.263Z" fill="#404041"/>
<path d="M615.404 293.106H516.491V304.235H615.404V293.106Z" fill="#404041"/>
<path d="M532.149 270.636H604.635V259.627H542.678V229.148H603.795V218.018H532.284C529.78 218.018 528.94 218.828 528.94 221.258V267.382C528.94 269.811 529.66 270.621 532.164 270.621L532.149 270.636Z" fill="#404041"/>
<path d="M865.318 293.241H766.405V304.25H865.318V293.241Z" fill="#1A1A1A"/>
<path d="M857.054 262.282H842.461L842.821 229.028H854.655V218.003H776.799V229.028H788.408L788.648 262.282H774.399V273.411H857.054V262.282ZM829.068 262.282H802.281L802.041 229.028H829.308L829.068 262.282Z" fill="#1A1A1A"/>
<path d="M990.268 293.001H891.355V304.01H990.268V293.001Z" fill="#404041"/>
<path d="M907.628 278.511H978.674V267.502H918.156V253.597H976.994V242.692H918.156V228.548H977.354V217.553H907.748C905.228 217.553 904.403 218.363 904.403 220.793V275.256C904.403 277.686 905.123 278.496 907.628 278.496V278.511Z" fill="#404041"/>
<path d="M690.83 246.412C697.174 258.472 711.887 269.242 727.8 274.461L736.529 264.967C715.607 259.627 698.029 242.587 698.134 225.668V216.743H683.54V225.668C683.54 243.292 667.148 258.352 644.665 264.847L654.114 274.581C670.972 268.327 684.02 259.387 690.83 246.412Z" fill="#404041"/>
<path d="M697.789 293.241V270.741H683.9V293.241H641.441V304.25H740.353V293.241H697.789Z" fill="#404041"/>
</g>
<defs>
<linearGradient id="paint0_linear_1_1000" x1="-0.499738" y1="81.1094" x2="656.448" y2="81.1094" gradientUnits="userSpaceOnUse">
<stop stop-color="#2E3092"/>
<stop offset="1" stop-color="#00AEEF"/>
</linearGradient>
<linearGradient id="paint1_linear_1_1000" x1="-0.589644" y1="80.9143" x2="655.126" y2="80.9143" gradientUnits="userSpaceOnUse">
<stop stop-color="#2E3092"/>
<stop offset="1" stop-color="#00AEEF"/>
</linearGradient>
<linearGradient id="paint2_linear_1_1000" x1="-0.589651" y1="80.8094" x2="655.126" y2="80.8094" gradientUnits="userSpaceOnUse">
<stop stop-color="#2E3092"/>
<stop offset="1" stop-color="#00AEEF"/>
</linearGradient>
<linearGradient id="paint3_linear_1_1000" x1="-0.784695" y1="80.7044" x2="656.163" y2="80.7044" gradientUnits="userSpaceOnUse">
<stop stop-color="#2E3092"/>
<stop offset="1" stop-color="#00AEEF"/>
</linearGradient>
<linearGradient id="paint4_linear_1_1000" x1="0.73247" y1="80.2244" x2="655.216" y2="80.2244" gradientUnits="userSpaceOnUse">
<stop stop-color="#2E3092"/>
<stop offset="1" stop-color="#00AEEF"/>
</linearGradient>
<linearGradient id="paint5_linear_1_1000" x1="-0.464928" y1="79.2425" x2="655.959" y2="79.2425" gradientUnits="userSpaceOnUse">
<stop stop-color="#2E3092"/>
<stop offset="1" stop-color="#00AEEF"/>
</linearGradient>
<clipPath id="clip0_1_1000">
<rect width="1132" height="317" fill="white"/>
</clipPath>
</defs>
</svg>
